<svg width="66" height="66" viewBox="0 0 66 66" fill="none" xmlns="http://www.w3.org/2000/svg">
<circle cx="33" cy="33" r="32.5" stroke="white"/>
<path d="M29.0665 4.20549C35.283 3.42452 41.7618 4.49631 47.2239 7.63236C54.807 11.8361 60.3056 19.5969 61.6762 28.1672C62.39 32.9973 62.0951 38.0329 60.4317 42.6435C58.1053 49.2959 53.2574 55.0128 47.0856 58.4092C41.4507 61.5615 34.7441 62.7044 28.3751 61.6693C21.7885 60.632 15.6208 57.2153 11.2243 52.2021C6.7322 47.1503 4.10689 40.4775 3.97267 33.7193C3.78356 27.3374 5.79472 20.9229 9.59133 15.7918C14.1688 9.51764 21.3492 5.19186 29.0665 4.20549ZM31.5962 7.90489C28.977 8.48451 27.1123 10.7297 26.0671 13.0808C25.2902 14.8725 23.8139 16.3571 21.9898 17.0608C19.3238 18.1448 16.3874 17.0486 13.6645 17.7706C11.2751 18.4621 9.54254 20.9921 9.92688 23.4753C10.48 26.8209 13.1703 29.4525 13.272 32.9221C13.4774 34.8684 12.2166 36.469 11.4175 38.1204C10.4434 40.0525 9.68084 42.3018 10.3072 44.4657C11.2467 46.894 13.9533 48.3603 16.5074 48.1102C19.1815 47.978 22.1748 47.9272 24.3324 49.7901C26.2866 51.7628 27.157 54.5653 29.1926 56.4771C31.1509 58.2871 34.4126 58.462 36.5336 56.831C39.1751 54.8094 39.8036 51.0449 42.6586 49.2409C45.3734 47.7217 48.5945 48.6227 51.5208 48.1305C53.9326 47.8153 55.964 45.5883 55.8908 43.1275C55.8786 40.3209 53.9061 38.1265 52.9849 35.6005C52.082 33.7051 52.2956 31.4273 53.292 29.6152C54.3799 27.4167 55.9071 25.1817 55.6672 22.6171C55.3987 19.9163 52.8812 17.7747 50.2071 17.7239C47.4476 17.4635 44.2956 18.2445 41.9408 16.3877C39.3969 14.6935 38.7542 11.4375 36.5133 9.47291C35.2261 8.23842 33.3715 7.54288 31.5962 7.90489Z" fill="white"/>
</svg>
