<svg width="261" height="32" viewBox="0 0 261 32" fill="none" xmlns="http://www.w3.org/2000/svg">
<path d="M51.2583 0.107943C54.3285 -0.278876 57.5116 0.38293 60.1774 1.94873C63.5499 3.90348 66.0649 7.19892 67.221 10.899C68.5014 14.9517 68.1999 19.4895 66.3429 23.3185C64.7538 26.6332 61.9887 29.4029 58.5898 30.8519C55.5889 32.1491 52.1321 32.3571 48.9997 31.4246C45.7816 30.4864 42.9572 28.3742 41.0344 25.6501C38.7723 22.4786 37.7363 18.4929 38.0571 14.6226C38.3565 10.7066 40.0806 6.89617 42.9165 4.15638C45.165 1.96298 48.1273 0.484789 51.2583 0.107943ZM51.4097 8.16348C49.7921 8.53107 48.3252 9.46712 47.2713 10.7387C45.9195 12.3494 45.2521 14.4929 45.39 16.5852C45.5208 18.9225 46.6869 21.1985 48.571 22.6111C50.1487 23.8243 52.2329 24.3614 54.2042 24.038C56.2619 23.7239 58.1296 22.4793 59.29 20.7647C60.5118 18.9937 60.9776 16.7419 60.614 14.6283C60.236 12.3295 58.8363 10.2002 56.8157 9.01334C55.2116 8.05163 53.2332 7.74389 51.4097 8.16348Z" fill="white"/>
<path d="M0 1.00391C1.14268 0.999544 2.28611 0.997369 3.42878 1.00538C8.13511 6.54432 12.8422 12.0833 17.5515 17.6207C22.2676 12.2252 26.9694 6.81956 31.6885 1.42698C32.7922 1.42989 33.8952 1.42698 34.9989 1.42989C35.0004 11.6194 35.0004 21.809 34.9989 31.9978C32.0182 32.0007 29.0382 32.0007 26.0598 31.9978C26.0583 28.4933 26.0598 24.988 26.0583 21.4842C23.2192 24.4478 20.3913 27.42 17.5538 30.3857C14.7919 27.3516 12.0382 24.3087 9.27629 21.2753C9.27479 24.8126 9.27779 28.3491 9.27479 31.8879C6.18395 31.8886 3.09234 31.8922 0.00149777 31.8857C-8.23273e-07 21.5913 0 11.2983 0 1.00391Z" fill="white"/>
<path d="M71.0008 1.00293C72.0658 0.998532 73.13 1.00293 74.195 1C79.3428 5.49448 84.4787 10.0029 89.625 14.4988C89.628 10.0337 89.6235 5.56998 89.6265 1.10557C92.4177 1.10997 95.2111 1.08577 98 1.11803C97.9925 11.3732 97.9985 21.6299 97.997 31.8843C97.0786 31.8909 96.1616 31.8858 95.2425 31.8872C89.8785 27.2146 84.525 22.5295 79.1589 17.8561C79.1589 22.5691 79.1566 27.2835 79.1604 31.9965C76.4395 32.0024 73.7209 31.9994 71 31.9979C71.0007 21.6673 71.0008 11.3351 71.0008 1.00293Z" fill="white"/>
<path d="M101.002 2.00035C109 2.00035 117 1.99893 125 2.0018C124.999 4.39768 125.002 6.79212 124.997 9.188C122.427 9.19087 119.857 9.18657 117.288 9.18944C117.286 16.7922 117.288 24.3949 117.286 31.9976C114.465 32.0005 111.644 32.0005 108.823 31.9991C108.818 24.4293 108.824 16.8603 108.82 9.29052C106.213 9.28765 103.608 9.29051 101.002 9.28907C100.999 6.8595 100.999 4.42921 101.002 2.00035Z" fill="white"/>
<path d="M250.144 1.20576C253.609 0.80676 257.124 1.03213 260.567 1.50484C260.309 3.73372 260.051 5.96191 259.785 8.18938C258.131 7.85912 256.441 7.67981 254.749 7.67839C252.604 7.66422 250.51 8.36939 248.704 9.42041C246.846 10.5196 245.332 12.2247 244.841 14.2602C244.246 16.7307 244.774 19.4876 246.482 21.484C248.098 23.3579 250.483 24.5811 252.976 25.0822C255.6 25.467 258.276 25.265 260.903 24.9985C260.934 27.1672 261.088 29.3408 260.929 31.5059C257.679 31.9708 254.367 32.1565 251.09 31.8489C249.079 31.6186 247.03 31.2146 245.279 30.221C242.803 29.0523 240.597 27.3628 238.929 25.2863C237.159 23.0829 236.119 20.3735 236.015 17.6152C235.911 14.7237 236.326 11.7414 237.74 9.13621C238.663 7.41547 240.058 5.94419 241.683 4.77695C242.866 3.91941 244.171 3.2277 245.458 2.52112C246.886 1.74508 248.524 1.40774 250.144 1.20576Z" fill="white"/>
<path d="M155.053 1.00401C157.819 0.997477 160.585 1.00039 163.35 1.00257C163.352 8.8685 163.349 16.7344 163.352 24.6018C165.568 24.6178 167.786 24.5757 170 24.6228C169.975 27.0816 169.999 29.5381 169.989 31.9983C164.992 32.002 159.996 31.9983 155 31.9998C155.006 21.6671 155.044 11.3359 155.053 1.00401Z" fill="white"/>
<path d="M186.407 1.00239C187.817 0.998046 189.226 1.00095 190.636 1.00095C195.096 11.325 199.545 21.6535 204 31.9783C200.751 31.9703 197.503 31.9617 194.253 31.9602C192.36 27.5337 190.482 23.1008 188.591 18.6743C186.495 23.1109 184.39 27.5417 182.292 31.9761C179.194 31.987 176.097 31.9928 173 32C177.467 21.6651 181.939 11.3344 186.407 1.00239Z" fill="white"/>
<path d="M128.001 1.00329C133.343 1.00183 138.687 0.995251 144.029 1.00621C146.395 1.17209 148.817 2.27405 150.089 4.28798C151.296 6.2018 151.388 8.58256 150.995 10.7404C150.618 12.864 149.291 14.9722 147.142 15.7482C149.344 16.3957 151.09 18.2262 151.668 20.3841C152.175 22.2775 152.092 24.3199 151.482 26.1811C150.823 28.1855 149.266 29.8509 147.341 30.7826C145.919 31.4797 144.35 31.9145 142.757 31.9978C137.838 32.0007 132.92 32.0007 128.001 31.9978C128 21.6665 128 11.3346 128.001 1.00329ZM136.718 6.51309C136.723 8.60083 136.736 10.6893 136.737 12.777C138.22 12.7982 139.703 12.8253 141.187 12.8428C142.205 12.8552 143.266 12.3247 143.666 11.3784C144.078 10.397 144.068 9.24755 143.672 8.26324C143.257 7.24458 142.151 6.63585 141.057 6.60443C139.612 6.5657 138.165 6.54159 136.718 6.51309ZM136.495 18.767C136.493 20.881 136.493 22.9951 136.495 25.1091C137.959 25.1062 139.423 25.1091 140.886 25.082C142.121 24.9052 143.355 24.1262 143.738 22.9227C144.074 21.8485 143.905 20.5485 143.053 19.7396C142.27 19.0052 141.146 18.7195 140.084 18.7012C138.888 18.7195 137.692 18.7392 136.495 18.767Z" fill="white"/>
<path d="M207 1.0025C208.026 0.998832 209.053 1.00028 210.079 1.00028C215.033 5.49853 219.982 10.0026 224.936 14.5024C224.941 10.0371 224.935 5.57042 224.94 1.10298C227.625 1.10151 230.312 1.1015 232.998 1.10443C233.001 11.3683 233 21.6322 233 31.8954C232.117 31.8991 231.235 31.8954 230.353 31.8969C225.184 27.2211 220.027 22.5337 214.858 17.8579C214.858 22.5703 214.858 27.2842 214.858 31.9966C212.239 32.0032 209.62 31.9981 207.001 31.9981C207 21.6667 207 11.3346 207 1.0025Z" fill="white"/>
</svg>
