<svg width="184" height="178" viewBox="0 0 184 178" fill="none" xmlns="http://www.w3.org/2000/svg">
<path d="M166.534 101.314L178.2 106.075L178.76 104.709L172.531 96.5541L182.719 95.0489L183.279 93.6831L171.62 88.9052L170.964 90.5041L179.409 93.9647L170.653 95.2982L170.339 96.0643L175.691 103.179L167.19 99.7147L166.534 101.314Z" fill="white"/>
<path d="M160.285 122.994C157.694 125.821 157.79 129.766 160.524 132.271C163.258 134.776 167.196 134.528 169.787 131.701C172.401 128.848 172.292 124.891 169.572 122.398C166.851 119.905 162.899 120.141 160.285 122.994ZM161.466 124.076C163.375 121.993 166.299 121.84 168.356 123.725C170.413 125.61 170.515 128.535 168.605 130.619C166.721 132.676 163.797 132.829 161.74 130.944C159.683 129.059 159.581 126.133 161.466 124.076Z" fill="white"/>
<path d="M147.077 157.237L142.722 148.911L153.776 153.733L155.084 153.049L149.244 141.884L147.649 142.718L152.004 151.044L140.95 146.222L139.642 146.906L145.482 158.071L147.077 157.237Z" fill="white"/>
<path d="M124.019 157.197L122.276 157.571L124.591 168.359L120.368 169.266L120.696 170.797L130.886 168.61L130.558 167.079L126.334 167.985L124.019 157.197Z" fill="white"/>
<path d="M97.865 170.343C96.8228 170.704 96.0088 171.564 95.8405 172.922C95.5903 174.94 97.0474 176.354 99.9234 176.711L105.533 177.406L107.082 164.901L101.116 164.162C97.9542 163.77 96.1759 164.801 95.9102 166.945C95.7043 168.606 96.5025 169.775 97.865 170.343ZM100.264 175.284C98.4415 175.058 97.4895 174.251 97.6534 172.929C97.8172 171.607 98.9374 171.056 100.759 171.282L104.421 171.736L103.926 175.737L100.264 175.284ZM101.008 165.618L105.117 166.127L104.601 170.289L100.492 169.78C98.5094 169.534 97.5173 168.758 97.6967 167.311C97.876 165.864 99.0253 165.372 101.008 165.618Z" fill="white"/>
<path d="M81.6043 164.363L73.6385 161.064L73.0393 162.511L79.342 165.121L75.1198 175.315L76.7828 176.004L81.6043 164.363Z" fill="white"/>
<path d="M54.2994 153.733L52.8561 152.513L49.093 165.831L50.4539 166.981L62.9459 161.043L61.53 159.846L58.4379 161.356L53.3243 157.034L54.2994 153.733ZM57.0272 162.049L50.9656 165.01L52.8758 158.54L57.0272 162.049Z" fill="white"/>
<path d="M24.9755 146.352L33.1349 141.693L28.7244 152.917L29.4563 154.199L40.398 147.951L39.5054 146.387L31.346 151.047L35.7566 139.822L35.0246 138.541L24.0829 144.789L24.9755 146.352Z" fill="white"/>
<path d="M22.9125 120.713C22.5081 118.793 21.4901 117.278 19.9845 116.418L19.116 117.797C20.3203 118.536 21.0407 119.599 21.3263 120.955C21.9124 123.738 20.3384 126.222 17.6083 126.797C14.8782 127.371 12.4363 125.734 11.8502 122.951C11.5645 121.594 11.7777 120.335 12.5813 119.173L11.2306 118.262C10.1998 119.656 9.89676 121.449 10.2974 123.351C11.0875 127.103 14.3332 129.326 17.9793 128.558C21.6253 127.79 23.6989 124.447 22.9125 120.713Z" fill="white"/>
<path d="M16.0906 81.2537L4.08589 77.4266L3.63557 78.8322L10.4877 86.471L0.450327 88.7745L0 90.1801L11.9992 94.0243L12.5265 92.3787L3.83557 89.5944L12.4588 87.5751L12.7114 86.7865L6.81562 80.1157L15.5634 82.8993L16.0906 81.2537Z" fill="white"/>
<path d="M20.5093 59.2695C22.8652 56.2447 22.4543 52.3198 19.5289 50.0413C16.6036 47.7628 12.6975 48.3253 10.3415 51.35C7.96348 54.4032 8.3886 58.3392 11.2998 60.6066C14.2109 62.8741 18.1312 62.3226 20.5093 59.2695ZM19.2454 58.2851C17.5089 60.5146 14.6069 60.901 12.4058 59.1866C10.2047 57.4721 9.86887 54.5639 11.6054 52.3344C13.3198 50.1333 16.2217 49.7469 18.4228 51.4614C20.624 53.1758 20.9598 56.084 19.2454 58.2851Z" fill="white"/>
<path d="M33.3391 39.3718L34.7647 38.3026L28.1443 29.4754L31.6004 26.8834L30.6608 25.6306L22.3231 31.8837L23.2627 33.1365L26.7187 30.5446L33.3391 39.3718Z" fill="white"/>
<path d="M50.4224 23.3747C54.095 22.2741 56.0339 18.8369 54.9695 15.2849C53.9051 11.733 50.3954 9.92851 46.7228 11.0291C43.0157 12.14 41.0819 15.5945 42.1411 19.1292C43.2004 22.6639 46.7152 24.4856 50.4224 23.3747ZM49.9625 21.8401C47.2554 22.6513 44.6663 21.2851 43.8654 18.6125C43.0645 15.9399 44.4756 13.3749 47.1826 12.5637C49.8552 11.7628 52.4444 13.129 53.2453 15.8016C54.0462 18.4742 52.6351 21.0392 49.9625 21.8401Z" fill="white"/>
<path d="M80.1382 13.8892L77.2324 9.60228C79.0082 9.00644 80.0431 7.62216 80.0806 5.67852C80.1334 2.94303 78.1858 1.24913 74.9104 1.18591L69.9973 1.09107L69.7541 13.6887L71.5538 13.7235L71.6278 9.89018L74.7412 9.95027C75.0112 9.95548 75.2815 9.9427 75.5338 9.92956L78.1766 13.8513L80.1382 13.8892ZM74.7168 8.41952L71.6573 8.36046L71.7667 2.69152L74.8262 2.75057C77.1297 2.79504 78.3157 3.84412 78.281 5.64378C78.2462 7.44345 77.0203 8.46398 74.7168 8.41952Z" fill="white"/>
<path d="M99.351 12.5929C101.205 13.2336 103.028 13.1397 104.54 12.2909L103.805 10.837C102.551 11.4893 101.269 11.5608 99.9592 11.1081C97.2711 10.1794 95.9507 7.55219 96.8618 4.91514C97.7729 2.2781 100.433 1.02632 103.122 1.95505C104.432 2.40765 105.402 3.23795 105.985 4.52511L107.461 3.83535C106.796 2.23421 105.414 1.05219 103.577 0.41736C99.9529 -0.834656 96.3772 0.80561 95.1604 4.32734C93.9437 7.84908 95.7442 11.3468 99.351 12.5929Z" fill="white"/>
<path d="M132.679 10.8972L131.231 9.85954L124.07 12.9008L124.66 5.15319L123.095 4.03163L122.383 13.6183L119.825 17.1888L121.274 18.2265L123.811 14.6853L132.679 10.8972Z" fill="white"/>
<path d="M140.383 29.8085C141.56 31.3781 143.122 32.3213 144.85 32.4654L145.055 30.849C143.651 30.6869 142.55 30.0281 141.718 28.9193C140.012 26.6441 140.39 23.7281 142.622 22.0541C144.854 20.3802 147.759 20.8338 149.465 23.109C150.297 24.2178 150.635 25.449 150.398 26.8422L152.007 27.0978C152.353 25.3986 151.87 23.6454 150.704 22.0902C148.403 19.023 144.523 18.3785 141.542 20.6141C138.561 22.8497 138.093 26.7557 140.383 29.8085Z" fill="white"/>
<path d="M153.521 42.7178L156.671 50.7439L158.129 50.1718L155.637 43.8213L165.908 39.7905L165.25 38.1149L153.521 42.7178Z" fill="white"/>
<path d="M165.493 62.164L169.547 61.8192L170.082 68.1145L171.607 67.9848L171.071 61.6896L174.927 61.3616L175.528 68.4281L177.089 68.2954L176.335 59.4354L163.781 60.5032L164.556 69.6143L166.116 69.4816L165.493 62.164Z" fill="white"/>
</svg>
